#!OML:ASF E:\id_vita\Project 1\Capture day 1\Session 1\Female.ASF
:FULLY-SPECIFIED
:DEGREES
1018
root 8.29855 16.5243 2.54948 -68.403 86.9473 -81.9858
lowerback -13.5851 2.83066 -0.485647
upperback -3.51387 3.96145 0.0846618
thorax 3.86021 2.02346 1.02291
lowerneck 7.88347 0.498316 -7.01381
upperneck -2.56461 0.338101 7.39613
head -2.2883 0.0426428 3.71319
rclavicle -1.16724e-014 -9.14409e-015
rhumerus -18.4332 -2.84826 -90.731
rradius 29.432
rwrist 2.66718
rhand -16.5751 6.49866
rfingers 7.12502
rthumb 9.64532 -23.2605
lclavicle -1.16724e-014 -9.14409e-015
lhumerus -66.0113 40.7919 38.6285
lradius 14.6488
lwrist -57.1762
lhand -2.93318 24.0181
lfingers 7.12502
lthumb 22.7781 52.6933
rfemur -0.616092 8.20983 28.358
rtibia 11.9263
rfoot -12.6907 -1.28167
rtoes -12.7018
lfemur -43.5368 -13.2443 -6.40095
ltibia 17.6959
lfoot -12.7741 17.0187
ltoes -8.51368
1019
root 8.46105 16.496 2.53175 -62.0503 86.8076 -75.5758
lowerback -13.3946 2.88004 -0.371086
upperback -3.52291 4.00917 0.0751248
thorax 3.75486 2.04804 0.945191
lowerneck 5.95413 -0.0292875 -5.42994
upperneck -0.738114 -0.269455 5.48505
head -1.26006 -0.20327 2.71965
rclavicle 1.19178e-014 2.78299e-015
rhumerus -18.2139 -2.21222 -91.1095
rradius 29.7599
rwrist 2.38439
rhand -16.8062 7.05524
rfingers 7.12502
rthumb 9.42232 -22.7141
lclavicle 1.19178e-014 2.78299e-015
lhumerus -67.0145 41.1092 37.2525
lradius 14.602
lwrist -58.0028
lhand -2.90751 23.6142
lfingers 7.12502
lthumb 22.8027 52.2864
rfemur 0.314718 8.3349 28.4039
rtibia 11.5041
rfoot -12.6099 -1.05524
rtoes -13.7344
lfemur -43.8219 -14.9144 -4.79695
ltibia 16.5325
lfoot -12.0112 19.6043
ltoes -9.543
1020
root 8.62653 16.4774 2.51336 -54.9191 86.5602 -68.4199
lowerback -13.3047 2.93431 -0.224299
upperback -3.49684 4.05865 0.0693478
thorax 3.74299 2.0722 0.860829
lowerneck 10.0371 1.2555 -7.54002
upperneck -5.39375 1.35753 8.49385
head -3.34956 0.452801 3.7471
rclavicle -7.40783e-015 -2.38542e-015
rhumerus -17.8329 -1.70177 -91.502
rradius 29.8643
rwrist 2.35743
rhand -17.105 7.41985
rfingers 7.12502
rthumb 9.13401 -22.3624
lclavicle -7.40783e-015 -2.38542e-015
lhumerus -67.9637 41.4906 35.9546
lradius 14.5808
lwrist -58.7168
lhand -2.85854 23.1454
lfingers 7.12502
lthumb 22.8497 51.8118
rfemur 1.13584 8.58239 28.4264
rtibia 11.2294
rfoot -12.4929 -0.680478
rtoes -14.7878
lfemur -44.1238 -16.4665 -3.16084
ltibia 15.6424
lfoot -11.6979 22.1971
ltoes -10.6265
1021
root 8.79223 16.4647 2.49627 -46.5466 86.1243 -60.2324
lowerback -13.3473 3.06377 -0.0770397
upperback -3.58269 4.21374 0.0577517
thorax 3.68543 2.15181 0.790941
lowerneck 5.72517 -0.0206203 -4.80333
upperneck -0.89497 -0.218505 4.88991
head -1.26605 -0.168865 2.40102
rclavicle -2.4991e-014 -1.15295e-014
rhumerus -17.5665 -1.62568 -91.8584
rradius 29.9589
rwrist 2.72164
rhand -17.3247 7.7029
rfingers 7.12502
rthumb 8.92205 -22.0885
lclavicle -2.4991e-014 -1.15295e-014
lhumerus -68.6986 41.641 34.9584
lradius 14.4891
lwrist -59.0914
lhand -3.07794 22.8241
lfingers 7.12502
lthumb 22.6392 51.5163
rfemur 1.6341 8.96046 28.3996
rtibia 11.0932
rfoot -12.302 -0.141677
rtoes -15.6891
lfemur -44.5521 -17.6839 -1.51555
ltibia 14.972
lfoot -12.1462 24.8177
ltoes -10.8606
1022
root 8.95923 16.4472 2.48059 -37.8306 85.6172 -51.8427
lowerback -13.6787 3.19583 -0.103387
upperback -3.6012 4.39327 0.0766887
thorax 3.84035 2.24029 0.87487
lowerneck 7.51459 0.828696 -6.0964
upperneck -3.03041 0.864087 6.59988
head -2.39264 0.319272 3.23401
rclavicle -8.01972e-015 3.97569e-015
rhumerus -17.2733 -1.46727 -92.1621
rradius 30.1812
rwrist 2.92846
rhand -17.387 7.94483
rfingers 7.12502
rthumb 8.86192 -21.8491
lclavicle -8.01972e-015 3.97569e-015
lhumerus -70.0219 42.3013 33.1178
lradius 14.3755
lwrist -60.2863
lhand -3.35926 22.7968
lfingers 7.12502
lthumb 22.3691 51.5218
rfemur 1.94404 9.28981 28.1984
rtibia 10.9916
rfoot -12.1335 0.53853
rtoes -15.4016
lfemur -44.6741 -16.9478 -1.45791
ltibia 14.5615
lfoot -12.7389 25.1705
ltoes -11.0119
1023
root 9.13439 16.4262 2.46151 -32.2543 85.2697 -46.421
lowerback -13.9626 3.26443 -0.18044
upperback -3.50869 4.49105 0.0987245
thorax 4.08266 2.28443 0.979488
lowerneck 8.81651 1.38366 -6.96512
upperneck -5.02359 1.60854 7.88911
head -3.049 0.616736 3.4491
rclavicle 1.30452e-016 -3.97569e-015
rhumerus -17.0475 -1.17378 -92.4023
rradius 30.551
rwrist 2.88471
rhand -17.2263 7.94401
rfingers 7.12502
rthumb 9.017 -21.8433
lclavicle 1.30452e-016 -3.97569e-015
lhumerus -71.2892 43.0301 31.3419
lradius 14.2251
lwrist -61.6731
lhand -3.37317 23.0053
lfingers 7.12502
lthumb 22.3558 51.7319
rfemur 2.43291 9.36523 27.9467
rtibia 10.9708
rfoot -12.04 1.15272
rtoes -14.7449
lfemur -44.6993 -16.5643 -1.54589
ltibia 14.2978
lfoot -12.4315 25.2348
ltoes -11.611
1024
root 9.31225 16.4056 2.43945 -31.0284 85.0529 -45.2045
lowerback -13.7443 3.29883 -0.0538974
upperback -3.63724 4.52233 0.105024
thorax 3.83792 2.30502 0.900978
lowerneck 9.48007 1.52283 -7.00949
upperneck -5.84326 1.80332 8.02122
head -3.42067 0.691969 3.48879
rclavicle 5.24729e-014 1.39149e-014
rhumerus -17.2693 -1.08468 -92.6202
rradius 30.9007
rwrist 2.81298
rhand -17.0767 7.98972
rfingers 7.12502
rthumb 9.1613 -21.7913
lclavicle 5.24729e-014 1.39149e-014
lhumerus -72.3254 43.1854 29.87
lradius 13.9674
lwrist -62.7969
lhand -3.46352 22.927
lfingers 7.12502
lthumb 22.2691 51.664
rfemur 3.02728 9.32424 27.9085
rtibia 11.0899
rfoot -11.8934 1.5989
rtoes -14.4586
lfemur -44.5824 -16.5184 -1.49909
ltibia 14.0138
lfoot -12.0072 25.1156
ltoes -11.695
